#!OML:ASF \\sashay\E\basketball\basketball\Project 1\Capture day 1\Session 1\Subject.ASF
:FULLY-SPECIFIED
:DEGREES
130
root -34.737 15.1763 2.34609 -212.158 84.4956 147.187
lowerback 13.6792 1.09788 -3.97248
upperback 9.17579 1.59267 0.272229
thorax 1.91999 0.856309 2.33848
lowerneck 2.92067 -10.5982 -25.1189
upperneck -11.1361 -14.0269 24.3077
head 0.0861271 -7.04491 11.5613
rclavicle 2.98177e-015 3.37934e-014
rhumerus 51.3813 3.04051 -84.4431
rradius 101.208
rwrist -3.87254
rhand -20.4611 24.4005
rfingers 7.12502
rthumb 5.89466 -5.49752
lclavicle 2.98177e-015 3.37934e-014
lhumerus 85.9589 -12.4765 51.3821
lradius 76.3093
lwrist 20.8755
lhand -14.7279 29.1416
lfingers 7.12502
lthumb 11.4272 58.8102
rfemur -23.5345 -15.5736 16.2583
rtibia 55.9068
rfoot -24.8398 -10.0538
rtoes -17.9331
lfemur -19.6186 10.0582 -12.6306
ltibia 50.2083
lfoot -16.3927 -1.51579
ltoes -8.23157
131
root -34.7245 15.183 2.33196 -213.724 84.3149 145.67
lowerback 14.6995 1.22306 -4.19402
upperback 8.20783 1.59538 0.295864
thorax 0.342672 0.866567 2.44865
lowerneck 3.52273 -10.4178 -25.2933
upperneck -10.1693 -14.0787 23.7563
head 0.216354 -7.10076 11.3962
rclavicle 4.57205e-015 1.07344e-014
rhumerus 50.9289 3.35167 -84.1083
rradius 100.599
rwrist -3.49113
rhand -20.5315 24.5591
rfingers 7.12502
rthumb 5.82669 -5.34077
lclavicle 4.57205e-015 1.07344e-014
lhumerus 85.1819 -12.9196 52.1179
lradius 75.8601
lwrist 21.3251
lhand -14.1243 28.3702
lfingers 7.12502
lthumb 12.0092 58.0056
rfemur -23.3424 -15.5861 15.9146
rtibia 55.8138
rfoot -24.9096 -9.99903
rtoes -17.301
lfemur -19.352 10.2499 -12.9035
ltibia 49.9632
lfoot -16.3672 -1.88709
ltoes -5.71406
132
root -34.7076 15.1972 2.31455 -215.85 83.9421 143.452
lowerback 12.946 1.16474 -4.22762
upperback 9.34937 1.7013 0.073464
thorax 2.49151 0.893591 2.28154
lowerneck 2.97499 -10.7489 -25.2045
upperneck -10.9742 -14.288 24.0813
head 0.166353 -7.17033 11.4593
rclavicle -1.51076e-014 -2.50469e-014
rhumerus 53.7035 3.0853 -83.8287
rradius 100.038
rwrist -2.91541
rhand -20.5421 24.5258
rfingers 7.12502
rthumb 5.81649 -5.37432
lclavicle -1.51076e-014 -2.50469e-014
lhumerus 86.8654 -11.5609 51.9801
lradius 75.9475
lwrist 21.765
lhand -14.2629 27.6154
lfingers 7.12502
lthumb 11.8756 57.2586
rfemur -23.2235 -15.782 15.3658
rtibia 55.6793
rfoot -25.0817 -9.82963
rtoes -16.5052
lfemur -19.3495 10.4591 -13.4902
ltibia 49.7526
lfoot -16.2243 -1.51671
ltoes -9.23448
133
root -34.6887 15.2144 2.29584 -216.056 83.5706 143.157
lowerback 13.7487 1.2022 -4.39756
upperback 8.40562 1.59925 0.0923093
thorax 1.05909 0.850517 2.37337
lowerneck 3.58296 -10.5273 -25.5157
upperneck -10.1587 -14.2653 23.7237
head 0.266789 -7.18952 11.4005
rclavicle -2.08724e-014 -8.34896e-015
rhumerus 53.3016 3.39887 -83.5177
rradius 99.637
rwrist -2.60685
rhand -20.5952 24.5236
rfingers 7.12502
rthumb 5.76514 -5.37794
lclavicle -2.08724e-014 -8.34896e-015
lhumerus 85.9338 -12.0058 52.6198
lradius 75.873
lwrist 21.7052
lhand -14.7411 27.1114
lfingers 7.12502
lthumb 11.4145 56.7807
rfemur -23.0428 -16.0002 14.9915
rtibia 55.4935
rfoot -25.1943 -9.77721
rtoes -16.1213
lfemur -19.4426 10.616 -13.927
ltibia 49.5893
lfoot -16.0534 -1.04842
ltoes -13.7778
134
root -34.6731 15.228 2.28115 -215.868 83.4493 143.363
lowerback 14.0705 1.36848 -4.74667
upperback 7.98101 1.72146 0.434325
thorax 0.413146 0.89985 2.89702
lowerneck 3.99741 -10.4088 -26.157
upperneck -9.7404 -14.3076 23.5356
head 0.347887 -7.21834 11.4466
rclavicle -7.95139e-016 6.75868e-015
rhumerus 53.6162 3.62445 -82.7375
rradius 99.1754
rwrist -2.47557
rhand -20.6513 24.5225
rfingers 7.12502
rthumb 5.71101 -5.38058
lclavicle -7.95139e-016 6.75868e-015
lhumerus 85.5585 -11.939 53.4619
lradius 75.6625
lwrist 21.7591
lhand -15.0095 26.8969
lfingers 7.12502
lthumb 11.1556 56.5804
rfemur -22.7732 -15.9253 14.8189
rtibia 55.2596
rfoot -24.9416 -9.88671
rtoes -16.6357
lfemur -19.3649 10.9065 -14.0499
ltibia 49.4593
lfoot -16.0325 -0.994953
ltoes -16.2585
135
root -34.6594 15.2353 2.26986 -215.34 83.4501 143.995
lowerback 12.5386 1.34007 -4.18503
upperback 9.19269 1.9345 0.045656
thorax 2.52615 1.00728 2.21073
lowerneck 3.43044 -10.7603 -25.7889
upperneck -10.58 -14.5024 24.23
head 0.310552 -7.30055 11.5938
rclavicle -4.37326e-015 1.55052e-014
rhumerus 56.2348 3.11401 -82.9593
rradius 98.7216
rwrist -2.10515
rhand -20.7049 24.5183
rfingers 7.12502
rthumb 5.65924 -5.38608
lclavicle -4.37326e-015 1.55052e-014
lhumerus 87.4638 -10.6773 52.7815
lradius 75.6595
lwrist 22.1911
lhand -15.25 26.4056
lfingers 7.12502
lthumb 10.9236 56.1014
rfemur -22.4493 -15.6863 14.7873
rtibia 55.0055
rfoot -24.5527 -10.187
rtoes -17.6008
lfemur -19.1637 11.1322 -13.9745
ltibia 49.3355
lfoot -16.2472 -1.11165
ltoes -17.7621
136
root -34.6405 15.2432 2.25544 -212.783 83.4725 146.737
lowerback 12.9452 1.41764 -4.02507
upperback 8.81558 1.99445 0.255609
thorax 1.8966 1.04519 2.3141
lowerneck 3.66991 -10.7073 -26.0557
upperneck -10.06 -14.5795 24.0193
head 0.429009 -7.34865 11.5502
rclavicle -3.97569e-015 -2.42517e-014
rhumerus 56.4688 3.36766 -82.6306
rradius 98.257
rwrist -1.79465
rhand -20.762 24.5763
rfingers 7.12502
rthumb 5.6041 -5.32958
lclavicle -3.97569e-015 -2.42517e-014
lhumerus 87.1283 -10.669 53.3224
lradius 75.5461
lwrist 22.241
lhand -15.4614 25.8276
lfingers 7.12502
lthumb 10.7197 55.5342
rfemur -21.9954 -15.5101 15.0041
rtibia 54.7286
rfoot -24.5209 -10.6059
rtoes -18.0885
lfemur -18.8923 11.2268 -13.6595
ltibia 49.2147
lfoot -16.5292 -1.25725
ltoes -19.6421
137
root -34.6214 15.2524 2.23706 -211.044 83.4584 148.554
lowerback 13.6077 1.4676 -3.80628
upperback 8.11895 1.98895 0.270347
thorax 0.80542 1.06062 2.17416
lowerneck 4.03408 -10.5331 -26.1636
upperneck -9.2247 -14.5461 23.7373
head 0.567967 -7.3589 11.4693
rclavicle -3.37934e-014 2.34566e-014
rhumerus 56.2144 3.70858 -82.544
rradius 97.7992
rwrist -1.55112
rhand -20.8098 24.6377
rfingers 7.12502
rthumb 5.55799 -5.26942
lclavicle -3.37934e-014 2.34566e-014
lhumerus 86.4569 -10.8939 53.6623
lradius 75.3666
lwrist 22.3254
lhand -15.6353 25.3647
lfingers 7.12502
lthumb 10.5519 55.0798
rfemur -21.6835 -15.375 15.1162
rtibia 54.4975
rfoot -24.5719 -10.8326
rtoes -17.9526
lfemur -18.6963 11.4009 -13.5086
ltibia 49.0823
lfoot -16.4379 -1.69728
ltoes -18.476
138
root -34.6105 15.2587 2.21891 -209.962 83.3521 149.592
lowerback 13.68 1.58297 -3.96252
upperback 7.83187 2.0931 0.509948
thorax 0.443536 1.10348 2.49027
lowerneck 4.43223 -10.5373 -26.3576
upperneck -9.1144 -14.6881 23.4571
head 0.549605 -7.44026 11.409
rclavicle -2.78299e-015 8.74653e-015
rhumerus 56.6895 3.93645 -81.9876
rradius 97.2419
rwrist -1.46713
rhand -20.7975 24.5954
rfingers 7.12502
rthumb 5.56988 -5.31139
lclavicle -2.78299e-015 8.74653e-015
lhumerus 86.2487 -10.8024 54.274
lradius 75.0415
lwrist 22.0634
lhand -16.0878 24.6547
lfingers 7.12502
lthumb 10.1154 54.3916
rfemur -21.5667 -15.2331 15.1123
rtibia 54.3377
rfoot -24.2964 -11.1132
rtoes -18.8199
lfemur -18.6543 11.6005 -13.5381
ltibia 48.9364
lfoot -16.0522 -2.29938
ltoes -13.2748
